<?xml version="1.0" ?>
<!-- Uploaded to: SVG Repo, www.svgrepo.com, Generator: SVG Repo Mixer Tools -->
<svg fill="#000000" width="800px" height="800px" viewBox="0 0 64 64" id="Layer_1_1_" version="1.1" xml:space="preserve" xmlns="http://www.w3.org/2000/svg" xmlns:xlink="http://www.w3.org/1999/xlink">
<g>
<path d="M56,27.101V25c0-1.103-0.897-2-2-2V4c0-1.654-1.346-3-3-3H13c-1.654,0-3,1.346-3,3v23c-1.103,0-2,0.897-2,2v2.101   C5.721,31.566,4,33.586,4,36v22c0,2.757,2.243,5,5,5h2h4h40c2.757,0,5-2.243,5-5V32C60,29.586,58.279,27.566,56,27.101z M24,31h-4   v-2h4V31z M24,27h-4c-1.103,0-2,0.897-2,2v2h-2v-1v-1V7h32v16c-1.103,0-2,0.897-2,2v2H32.657c-1.335,0-2.591,0.52-3.535,1.464   L26.586,31H26v-2C26,27.897,25.103,27,24,27z M48,25h6v2h-6V25z M12,4c0-0.551,0.449-1,1-1h38c0.551,0,1,0.449,1,1v19h-2V5H14v22   h-2V4z M14,29v1v1h-4v-2H14z M9,33h18.414l3.122-3.122C31.094,29.32,31.867,29,32.657,29H55c1.654,0,3,1.346,3,3v3H46.451   c-2.198-1.265-4.738-2-7.451-2s-5.253,0.735-7.451,2H15h-4H6.184C6.598,33.839,7.698,33,9,33z M24.984,53.297   c0.475,1.253,1.111,2.425,1.887,3.492C26.602,56.924,26.309,57,26,57c-1.103,0-2-0.897-2-2C24,54.284,24.394,53.647,24.984,53.297z    M26,48c0-7.168,5.832-13,13-13s13,5.832,13,13s-5.832,13-13,13S26,55.168,26,48z M11,61H9c-1.654,0-3-1.346-3-3V37h5h4   c1.654,0,3,1.346,3,3v0.198l-5.084,1.13C10.61,41.84,9,43.847,9,46.208V59h2V46.208c0-1.417,0.966-2.621,2.349-2.929L18,42.246V58   c0,1.654-1.346,3-3,3H11z M18.974,61C19.609,60.162,20,59.13,20,58V40c0-1.13-0.391-2.162-1.026-3h9.862   C25.871,39.742,24,43.652,24,48c0,1.159,0.145,2.283,0.395,3.368C22.98,51.993,22,53.396,22,55c0,2.206,1.794,4,4,4   c0.773,0,1.515-0.246,2.156-0.665c0.995,1.043,2.135,1.941,3.392,2.665H18.974z M55,61h-8.549C50.954,58.409,54,53.558,54,48   c0-4.348-1.871-8.258-4.837-11H58v21C58,59.654,56.654,61,55,61z"/>
<path d="M39,52c2.206,0,4-1.794,4-4s-1.794-4-4-4s-4,1.794-4,4S36.794,52,39,52z M39,46c1.103,0,2,0.897,2,2s-0.897,2-2,2   s-2-0.897-2-2S37.897,46,39,46z"/>
<path d="M39,58c5.514,0,10-4.486,10-10s-4.486-10-10-10s-10,4.486-10,10S33.486,58,39,58z M39,40c4.411,0,8,3.589,8,8s-3.589,8-8,8   s-8-3.589-8-8S34.589,40,39,40z"/>
<rect height="2" width="2" x="54" y="57"/>
<rect height="2" width="2" x="30" y="31"/>
<rect height="2" width="4" x="52" y="31"/>
<rect height="2" width="4" x="46" y="31"/>
<rect height="2" width="2" x="34" y="31"/>
</g>
</svg>