<svg width="15" height="17" viewBox="0 0 15 17" fill="none" xmlns="http://www.w3.org/2000/svg">
<path d="M12.5556 7.75H2.44444C1.6467 7.75 1 8.42158 1 9.25001V14.5C1 15.3285 1.6467 16 2.44444 16H12.5556C13.3533 16 14 15.3285 14 14.5V9.25001C14 8.42158 13.3533 7.75 12.5556 7.75Z" stroke="black" stroke-width="2" stroke-linecap="round" stroke-linejoin="round"/>
<path d="M3.88867 7.75003V4.75002C3.88867 3.75545 4.26913 2.80162 4.94634 2.09835C5.62356 1.39509 6.54206 1 7.49978 1C8.45751 1 9.37601 1.39509 10.0532 2.09835C10.7304 2.80162 11.1109 3.75545 11.1109 4.75002V7.75003" stroke="black" stroke-width="2" stroke-linecap="round" stroke-linejoin="round"/>
</svg>
