<svg width="24" height="24" viewBox="0 0 24 24" fill="none" xmlns="http://www.w3.org/2000/svg">
<path d="M9.30966 15.7089C9.70116 16.0984 10.3343 16.0968 10.7239 15.7053C11.1134 15.3138 11.1118 14.6807 10.7203 14.2911L9.30966 15.7089ZM7.70534 11.2911C7.31384 10.9016 6.68068 10.9032 6.29113 11.2947C5.90158 11.6862 5.90316 12.3193 6.29466 12.7089L7.70534 11.2911ZM6.29466 11.2911C5.90316 11.6807 5.90158 12.3138 6.29113 12.7053C6.68068 13.0968 7.31384 13.0984 7.70534 12.7089L6.29466 11.2911ZM10.7203 9.70887C11.1118 9.31932 11.1134 8.68616 10.7239 8.29466C10.3343 7.90316 9.70116 7.90158 9.30966 8.29113L10.7203 9.70887ZM7 11C6.44772 11 6 11.4477 6 12C6 12.5523 6.44772 13 7 13V11ZM21 13C21.5523 13 22 12.5523 22 12C22 11.4477 21.5523 11 21 11V13ZM10.7203 14.2911L7.70534 11.2911L6.29466 12.7089L9.30966 15.7089L10.7203 14.2911ZM7.70534 12.7089L10.7203 9.70887L9.30966 8.29113L6.29466 11.2911L7.70534 12.7089ZM7 13H21V11H7V13Z" fill="black"/>
<path d="M15 9C15 6.79086 13.2091 5 11 5H7C4.79086 5 3 6.79086 3 9V15C3 17.2091 4.79086 19 7 19H11C13.2091 19 15 17.2091 15 15" stroke="black" stroke-width="2" stroke-linecap="round" stroke-linejoin="round"/>
<path d="M9.30966 15.7089C9.70116 16.0984 10.3343 16.0968 10.7239 15.7053C11.1134 15.3138 11.1118 14.6807 10.7203 14.2911L9.30966 15.7089ZM7.70534 11.2911C7.31384 10.9016 6.68068 10.9032 6.29113 11.2947C5.90158 11.6862 5.90316 12.3193 6.29466 12.7089L7.70534 11.2911ZM6.29466 11.2911C5.90316 11.6807 5.90158 12.3138 6.29113 12.7053C6.68068 13.0968 7.31384 13.0984 7.70534 12.7089L6.29466 11.2911ZM10.7203 9.70887C11.1118 9.31932 11.1134 8.68616 10.7239 8.29466C10.3343 7.90316 9.70116 7.90158 9.30966 8.29113L10.7203 9.70887ZM7 11C6.44772 11 6 11.4477 6 12C6 12.5523 6.44772 13 7 13V11ZM21 13C21.5523 13 22 12.5523 22 12C22 11.4477 21.5523 11 21 11V13ZM10.7203 14.2911L7.70534 11.2911L6.29466 12.7089L9.30966 15.7089L10.7203 14.2911ZM7.70534 12.7089L10.7203 9.70887L9.30966 8.29113L6.29466 11.2911L7.70534 12.7089ZM7 13H21V11H7V13Z" fill="black"/>
<path d="M15 9C15 6.79086 13.2091 5 11 5H7C4.79086 5 3 6.79086 3 9V15C3 17.2091 4.79086 19 7 19H11C13.2091 19 15 17.2091 15 15" stroke="black" stroke-width="2" stroke-linecap="round" stroke-linejoin="round"/>
</svg>
