<svg width="34" height="34" viewBox="0 0 34 34" fill="none" xmlns="http://www.w3.org/2000/svg">
<path d="M5 7.16667C5 6.45942 5.28095 5.78115 5.78105 5.28105C6.28115 4.78095 6.95942 4.5 7.66667 4.5H12.04C12.3197 4.50021 12.5923 4.5884 12.8191 4.75207C13.046 4.91574 13.2156 5.14661 13.304 5.412L15.3013 11.4027C15.4025 11.7071 15.3906 12.0379 15.2676 12.3342C15.1447 12.6305 14.919 12.8726 14.632 13.016L11.6227 14.5227C13.0978 17.7874 15.7126 20.4022 18.9773 21.8773L20.484 18.868C20.6274 18.581 20.8695 18.3553 21.1658 18.2324C21.4621 18.1094 21.7929 18.0975 22.0973 18.1987L28.088 20.196C28.3536 20.2845 28.5846 20.4543 28.7483 20.6814C28.912 20.9085 29.0001 21.1814 29 21.4613V25.8333C29 26.5406 28.719 27.2189 28.219 27.719C27.7189 28.219 27.0406 28.5 26.3333 28.5H25C13.9547 28.5 5 19.5453 5 8.5V7.16667Z" stroke="black" stroke-width="3" stroke-linecap="round" stroke-linejoin="round"/>
</svg>
