<svg width="19" height="19" viewBox="0 0 19 19" fill="none" xmlns="http://www.w3.org/2000/svg">
<path d="M8.13672 6.83528C8.27106 6.54236 8.49923 6.30259 8.78513 6.15391C9.07103 6.00522 9.39835 5.9561 9.7153 6.01432C9.93241 6.04758 10.1387 6.13131 10.3176 6.25876C10.4964 6.38622 10.6429 6.55385 10.7453 6.74819C10.8188 6.90367 10.8586 7.07294 10.8622 7.24489C10.8658 7.41685 10.8329 7.58761 10.7659 7.746C10.6988 7.90438 10.5991 8.04681 10.4731 8.16395C10.3472 8.2811 10.198 8.3703 10.0351 8.42573C9.86894 8.48881 9.72513 8.59968 9.62186 8.74437C9.51859 8.88907 9.46048 9.0611 9.45484 9.23878V9.57365" stroke="black" stroke-width="2" stroke-miterlimit="10" stroke-linecap="round"/>
<path d="M9.42885 11.4261H9.43281M16.3654 9.4129V5.2329C16.3657 4.91212 16.2648 4.59943 16.0772 4.33922C15.8896 4.07901 15.6248 3.88451 15.3204 3.78336L11.4302 2.48582C10.1765 2.07358 8.82372 2.07358 7.57002 2.48582L3.67977 3.78256C3.37542 3.88358 3.11064 4.07792 2.92305 4.338C2.73545 4.59807 2.63458 4.91064 2.63477 5.23131V9.41131C2.63484 10.4431 2.89651 11.4581 3.39534 12.3613C3.89417 13.2646 4.61386 14.0266 5.48714 14.5761L8.69181 16.5901C8.93421 16.7416 9.21428 16.8219 9.5001 16.8219C9.78592 16.8219 10.066 16.7416 10.3084 16.5901L13.5123 14.5761C14.3856 14.0268 15.1054 13.265 15.6044 12.3619C16.1034 11.4588 16.3652 10.4439 16.3654 9.41211" stroke="black" stroke-width="2" stroke-linecap="round" stroke-linejoin="round"/>
</svg>
