<svg width="18" height="20" viewBox="0 0 18 20" fill="none" xmlns="http://www.w3.org/2000/svg">
<path d="M10.7769 1V4.83333C10.7769 5.0875 10.8913 5.33125 11.095 5.51098C11.2988 5.6907 11.5751 5.79167 11.8632 5.79167H16.2084" stroke="black" stroke-width="2" stroke-linecap="round" stroke-linejoin="round"/>
<path d="M5.34524 6.75H6.43155M5.34524 10.5833H11.8631M5.34524 14.4167H11.8631M14.0357 18.25H3.17262C2.5964 18.25 2.04379 18.0481 1.63635 17.6886C1.2289 17.3292 1 16.8417 1 16.3333V2.91667C1 2.40834 1.2289 1.92082 1.63635 1.56138C2.04379 1.20193 2.5964 1 3.17262 1H10.7768L16.2083 5.79167V16.3333C16.2083 16.8417 15.9794 17.3292 15.572 17.6886C15.1645 18.0481 14.6119 18.25 14.0357 18.25Z" stroke="black" stroke-width="2" stroke-linecap="round" stroke-linejoin="round"/>
</svg>
